<mxfile host="65bd71144e">
    <diagram id="MANbkKNaunbo-AoLA5g7" name="Page-1">
        <mxGraphModel dx="822" dy="420" grid="0" gridSize="10" guides="1" tooltips="1" connect="1" arrows="1" fold="1" page="1" pageScale="1" pageWidth="827" pageHeight="1169" background="#ffffff" math="0" shadow="0">
            <root>
                <mxCell id="0"/>
                <mxCell id="1" parent="0"/>
                <mxCell id="10" value="&lt;font color=&quot;#cc0000&quot;&gt;0x00001&lt;/font&gt;" style="rounded=0;whiteSpace=wrap;html=1;fillColor=#ffcccc;strokeColor=#36393d;" parent="1" vertex="1">
                    <mxGeometry x="183" y="132" width="120" height="42" as="geometry"/>
                </mxCell>
                <mxCell id="17" value="&lt;font color=&quot;#cc0000&quot;&gt;0x00009&lt;/font&gt;" style="rounded=0;whiteSpace=wrap;html=1;fillColor=#ffcccc;strokeColor=#36393d;" parent="1" vertex="1">
                    <mxGeometry x="183" y="174" width="120" height="42" as="geometry"/>
                </mxCell>
                <mxCell id="18" value="" style="rounded=0;whiteSpace=wrap;html=1;fillColor=#ffe6cc;strokeColor=#d79b00;dashed=1;" parent="1" vertex="1">
                    <mxGeometry x="183" y="216" width="120" height="42" as="geometry"/>
                </mxCell>
                <mxCell id="19" value="" style="rounded=0;whiteSpace=wrap;html=1;fillColor=#ffe6cc;strokeColor=#d79b00;dashed=1;" parent="1" vertex="1">
                    <mxGeometry x="183" y="258" width="120" height="42" as="geometry"/>
                </mxCell>
                <mxCell id="21" value="&lt;font color=&quot;#cc0000&quot;&gt;0x00001&lt;/font&gt;" style="rounded=0;whiteSpace=wrap;html=1;fillColor=#ffcccc;strokeColor=#36393d;" parent="1" vertex="1">
                    <mxGeometry x="417" y="42" width="120" height="42" as="geometry"/>
                </mxCell>
                <mxCell id="22" value="&lt;font color=&quot;#cc0000&quot;&gt;0x00009&lt;/font&gt;" style="rounded=0;whiteSpace=wrap;html=1;fillColor=#ffcccc;strokeColor=#36393d;" parent="1" vertex="1">
                    <mxGeometry x="417" y="84" width="120" height="42" as="geometry"/>
                </mxCell>
                <mxCell id="23" value="" style="rounded=0;whiteSpace=wrap;html=1;fillColor=#ffe6cc;strokeColor=#d79b00;dashed=1;" parent="1" vertex="1">
                    <mxGeometry x="417" y="208" width="120" height="42" as="geometry"/>
                </mxCell>
                <mxCell id="24" value="" style="rounded=0;whiteSpace=wrap;html=1;fillColor=#ffe6cc;strokeColor=#d79b00;dashed=1;" parent="1" vertex="1">
                    <mxGeometry x="417" y="251" width="120" height="42" as="geometry"/>
                </mxCell>
                <mxCell id="25" value="&lt;font color=&quot;#cc0000&quot;&gt;0x00017&lt;/font&gt;" style="rounded=0;whiteSpace=wrap;html=1;fillColor=#ffcccc;strokeColor=#36393d;" parent="1" vertex="1">
                    <mxGeometry x="417" y="126" width="120" height="42" as="geometry"/>
                </mxCell>
                <mxCell id="26" value="&lt;font color=&quot;#cc0000&quot;&gt;0x00026&lt;/font&gt;" style="rounded=0;whiteSpace=wrap;html=1;fillColor=#ffcccc;strokeColor=#36393d;" parent="1" vertex="1">
                    <mxGeometry x="417" y="166" width="120" height="42" as="geometry"/>
                </mxCell>
                <mxCell id="27" value="" style="endArrow=classic;html=1;fontColor=#990000;strokeColor=#000000;" parent="1" edge="1">
                    <mxGeometry width="50" height="50" relative="1" as="geometry">
                        <mxPoint x="326" y="209" as="sourcePoint"/>
                        <mxPoint x="376" y="159" as="targetPoint"/>
                    </mxGeometry>
                </mxCell>
                <mxCell id="28" value="" style="endArrow=classic;html=1;fontColor=#990000;strokeColor=#000000;" parent="1" edge="1">
                    <mxGeometry width="50" height="50" relative="1" as="geometry">
                        <mxPoint x="325" y="209" as="sourcePoint"/>
                        <mxPoint x="375" y="251" as="targetPoint"/>
                    </mxGeometry>
                </mxCell>
                <mxCell id="29" value="" style="rounded=0;whiteSpace=wrap;html=1;fillColor=#ffe6cc;strokeColor=#d79b00;dashed=1;" parent="1" vertex="1">
                    <mxGeometry x="417" y="293" width="120" height="42" as="geometry"/>
                </mxCell>
                <mxCell id="30" value="" style="rounded=0;whiteSpace=wrap;html=1;fillColor=#ffe6cc;strokeColor=#d79b00;dashed=1;" parent="1" vertex="1">
                    <mxGeometry x="417" y="335" width="120" height="42" as="geometry"/>
                </mxCell>
            </root>
        </mxGraphModel>
    </diagram>
</mxfile>